<?xml version="1.0" encoding="UTF-8"?>
<!-- Generator: Adobe Illustrator 26.5.0, SVG Export Plug-In . SVG Version: 6.00 Build 0)  -->
<svg version="1.1" id="Layer_1" xmlns="http://www.w3.org/2000/svg" xmlns:xlink="http://www.w3.org/1999/xlink" x="0px" y="0px" viewBox="0 0 595.28 186.73" style="enable-background:new 0 0 595.28 186.73;" xml:space="preserve">
<style type="text/css">
	.st0{fill:url(#SVGID_1_);}
	.st1{fill:url(#SVGID_00000092419610139532694330000017416469707260629382_);}
	.st2{fill:url(#SVGID_00000170982650012500858810000004220062613490545581_);}
	.st3{fill:url(#SVGID_00000063632955865195944260000010853001913182367145_);}
	.st4{fill:url(#SVGID_00000150064532159698574880000002270824038506279850_);}
	.st5{fill:url(#SVGID_00000073689103885623953170000005176885629057806524_);}
	.st6{fill:url(#SVGID_00000178889977457466529020000009941041408520392077_);}
	.st7{fill:url(#SVGID_00000008111695153673639510000006900598128249671559_);}
	.st8{fill:#C92157;}
	.st9{fill:url(#SVGID_00000164503561190235383870000001641517603910645405_);}
	.st10{fill:url(#SVGID_00000106828079874332126850000007041949218549755067_);}
	.st11{fill:url(#SVGID_00000170965395496391326940000008575912811170153125_);}
	.st12{fill:url(#SVGID_00000066489255566014935770000012765639888480077731_);}
	.st13{fill:url(#SVGID_00000155850219208367177300000011856280864528702367_);}
	.st14{fill:url(#SVGID_00000140731224578785509130000011409311366216703649_);}
	.st15{fill:url(#SVGID_00000043446720188329698660000018075470865897302692_);}
	.st16{fill:url(#SVGID_00000127760383326796843500000005430602905157801871_);}
	.st17{fill:url(#SVGID_00000170971819634605044460000003797710435426565286_);}
</style>
<g>
	<linearGradient id="SVGID_1_" gradientUnits="userSpaceOnUse" x1="111.5499" y1="82.6436" x2="147.7591" y2="131.5131">
		<stop offset="0" style="stop-color:#2F7178"/>
		<stop offset="0.4388" style="stop-color:#379D7F"/>
		<stop offset="0.5503" style="stop-color:#348E7E"/>
		<stop offset="0.7181" style="stop-color:#317E7B"/>
		<stop offset="0.8726" style="stop-color:#307479"/>
		<stop offset="1" style="stop-color:#2F7178"/>
	</linearGradient>
	<polygon class="st0" points="124.39,150.34 111.19,108.31 123.66,48.63 137.83,92.6  "/>
</g>
<g>
	
		<linearGradient id="SVGID_00000179609333034850503890000015962435926212540086_" gradientUnits="userSpaceOnUse" x1="466.3477" y1="136.7028" x2="549.2653" y2="59.3808">
		<stop offset="0.2116" style="stop-color:#952457"/>
		<stop offset="0.5066" style="stop-color:#EF4161"/>
		<stop offset="0.8889" style="stop-color:#952457"/>
	</linearGradient>
	<polygon style="fill:url(#SVGID_00000179609333034850503890000015962435926212540086_);" points="527.46,94.75 472.29,143.08    479.35,109.55 543.21,52.89  "/>
</g>
<g>
	
		<linearGradient id="SVGID_00000024694153970228945620000013911930529874290816_" gradientUnits="userSpaceOnUse" x1="310.1163" y1="54.6558" x2="361.1796" y2="71.2473">
		<stop offset="0" style="stop-color:#952457"/>
		<stop offset="0.5331" style="stop-color:#EF4161"/>
		<stop offset="1" style="stop-color:#952457"/>
	</linearGradient>
	<path style="fill:url(#SVGID_00000024694153970228945620000013911930529874290816_);" d="M357.97,74.89   c-3.17-11.76-23.58-9.9-49.9-4.55c1.9-8.4,4.66-23.72,4.66-23.72c26.94,0.69,40.43,4.18,47.34,9.66c0,0,0.01,0,0.01,0.01   C366.06,61.96,362.38,69.47,357.97,74.89z"/>
</g>
<g>
	
		<linearGradient id="SVGID_00000008146107933257397150000008156060217575500182_" gradientUnits="userSpaceOnUse" x1="293.9561" y1="120.7608" x2="406.6844" y2="155.2253">
		<stop offset="0.2381" style="stop-color:#952457"/>
		<stop offset="0.4418" style="stop-color:#EF4161"/>
		<stop offset="0.6667" style="stop-color:#952457"/>
	</linearGradient>
	<path style="fill:url(#SVGID_00000008146107933257397150000008156060217575500182_);" d="M407.23,153.46   c-67.16,2.16-103.96-18.24-112.13-29.33c-0.97-1.5-1.89-3.13-0.53-4.23c2.26-2.04,23.01-0.42,30.48-1.95   c7.42,5.46,12.04,8.79,34.44,12.04C367.55,139.36,392.15,151.48,407.23,153.46z"/>
</g>
<g>
	
		<linearGradient id="SVGID_00000072268808770167001370000018109805494596422572_" gradientUnits="userSpaceOnUse" x1="180.8807" y1="89.0307" x2="180.8807" y2="54.341">
		<stop offset="0.5661" style="stop-color:#2F7178"/>
		<stop offset="1" style="stop-color:#379D7F"/>
	</linearGradient>
	<path style="fill:url(#SVGID_00000072268808770167001370000018109805494596422572_);" d="M173.21,89.03   c0.2-0.63,12.48-34.69,12.48-34.69c0.81,2.97,2.03,4.77,2.86,6.45C181.08,68.37,174.8,85.6,173.21,89.03z"/>
	
		<linearGradient id="SVGID_00000109716054381939613170000007946845908435471024_" gradientUnits="userSpaceOnUse" x1="205.0494" y1="116.2439" x2="269.5871" y2="78.983">
		<stop offset="0.1508" style="stop-color:#2F7178"/>
		<stop offset="0.46" style="stop-color:#379D7F"/>
		<stop offset="0.5473" style="stop-color:#348E7E"/>
		<stop offset="0.6787" style="stop-color:#317E7B"/>
		<stop offset="0.7997" style="stop-color:#307479"/>
		<stop offset="0.8995" style="stop-color:#2F7178"/>
	</linearGradient>
	<path style="fill:url(#SVGID_00000109716054381939613170000007946845908435471024_);" d="M271.04,82.61   c0.22,22.15-27.28,52.41-68.94,28.53c-0.93-6.84,2.24-15.81,5.5-21.53c26.6,26.61,56.78,5.97,54.41-17.91   C265.96,74.28,269.74,77.41,271.04,82.61z"/>
</g>
<g>
	
		<linearGradient id="SVGID_00000175311699762015383970000012931346167274884496_" gradientUnits="userSpaceOnUse" x1="58.285" y1="151.3355" x2="58.285" y2="123.6955">
		<stop offset="0" style="stop-color:#2F7178"/>
		<stop offset="0.5446" style="stop-color:#379D7F"/>
	</linearGradient>
	<polygon style="fill:url(#SVGID_00000175311699762015383970000012931346167274884496_);" points="63.39,151.34 48.81,151.34    60.96,123.7 67.76,123.7  "/>
</g>
<g>
	
		<linearGradient id="SVGID_00000032632066589651266620000005350207350284074882_" gradientUnits="userSpaceOnUse" x1="52.4481" y1="51.3808" x2="92.9794" y2="14.8863">
		<stop offset="0.3122" style="stop-color:#2F7178"/>
		<stop offset="0.545" style="stop-color:#379D7F"/>
	</linearGradient>
	<path style="fill:url(#SVGID_00000032632066589651266620000005350207350284074882_);" d="M88.99,10.46l-9.93,36.17L64.92,57.07   c0,0-4.3-7.6-6.37-11.71c0.88,4.75,2.15,9.41,3.69,13.98l-1.63,1.11l-0.54-1.79l-1.63-4.85l-3.48-10.38l6.25-19.14L88.99,10.46z"/>
</g>
<g>
	<path class="st8" d="M490.1,63.8l-4.17,13.71l-14.95,9.59c-1.28-4.1-2.8-8.14-4.51-12.09c0.68,4.45,1.6,8.86,2.76,13.2v0.01   l-1.57,1.01l-5.35-19.92l0.49-2.14C467.49,63.8,490.1,63.8,490.1,63.8z"/>
</g>
<g>
	
		<linearGradient id="SVGID_00000137850801933601195310000016742902696896998298_" gradientUnits="userSpaceOnUse" x1="94.025" y1="151.3355" x2="94.025" y2="46.6255">
		<stop offset="0.1164" style="stop-color:#379D7F"/>
		<stop offset="0.221" style="stop-color:#60A97D"/>
		<stop offset="0.367" style="stop-color:#84B979"/>
		<stop offset="0.5058" style="stop-color:#9DC676"/>
		<stop offset="0.633" style="stop-color:#ACCF73"/>
		<stop offset="0.7379" style="stop-color:#B1D372"/>
		<stop offset="0.7792" style="stop-color:#A9CE73"/>
		<stop offset="0.8414" style="stop-color:#95C277"/>
		<stop offset="0.9168" style="stop-color:#72B17B"/>
		<stop offset="1" style="stop-color:#379D7F"/>
	</linearGradient>
	<path style="fill:url(#SVGID_00000137850801933601195310000016742902696896998298_);" d="M122.66,46.63   c0,0-24.12,79.11-26.76,87.64l0.09,0.02l-30.6,17.05l25.94-87.71L122.66,46.63z"/>
</g>
<g>
	
		<linearGradient id="SVGID_00000181083595361713343780000003955579509680538806_" gradientUnits="userSpaceOnUse" x1="155.025" y1="151.3355" x2="155.025" y2="46.6255">
		<stop offset="0.0899" style="stop-color:#379D7F"/>
		<stop offset="0.1447" style="stop-color:#60A97D"/>
		<stop offset="0.2211" style="stop-color:#84B979"/>
		<stop offset="0.2937" style="stop-color:#9DC676"/>
		<stop offset="0.3603" style="stop-color:#ACCF73"/>
		<stop offset="0.4152" style="stop-color:#B1D372"/>
		<stop offset="0.4964" style="stop-color:#A9CE73"/>
		<stop offset="0.6189" style="stop-color:#95C277"/>
		<stop offset="0.7673" style="stop-color:#72B17B"/>
		<stop offset="0.9312" style="stop-color:#379D7F"/>
	</linearGradient>
	<path style="fill:url(#SVGID_00000181083595361713343780000003955579509680538806_);" d="M183.66,46.63l-26.67,87.66l-30.6,17.05   l2.94-9.94v-0.01c4.97-14.12,20.17-66.01,23-77.76L183.66,46.63z"/>
</g>
<g>
	
		<linearGradient id="SVGID_00000087393708442795451140000009377073073000524682_" gradientUnits="userSpaceOnUse" x1="282.3549" y1="151.3355" x2="282.3549" y2="46.6255">
		<stop offset="0" style="stop-color:#EF4161"/>
		<stop offset="0.4152" style="stop-color:#F38085"/>
		<stop offset="0.5408" style="stop-color:#F37A81"/>
		<stop offset="0.73" style="stop-color:#F26A75"/>
		<stop offset="0.9583" style="stop-color:#EF4964"/>
		<stop offset="1" style="stop-color:#EF4161"/>
	</linearGradient>
	<path style="fill:url(#SVGID_00000087393708442795451140000009377073073000524682_);" d="M310.99,46.63l-26.63,87.56l-0.03,0.1   l-28.27,15.75l-2.34,1.3l1.59-5.38v-0.01c1.43-3.35,24.35-82.32,24.35-82.32L310.99,46.63z"/>
</g>
<g>
	
		<linearGradient id="SVGID_00000113317555876727743230000000175814195906635666_" gradientUnits="userSpaceOnUse" x1="305.19" y1="83.4459" x2="361.5344" y2="102.8468">
		<stop offset="0.1376" style="stop-color:#EF4161"/>
		<stop offset="0.5951" style="stop-color:#F38085"/>
		<stop offset="0.6548" style="stop-color:#F37A81"/>
		<stop offset="0.7447" style="stop-color:#F26A75"/>
		<stop offset="0.8532" style="stop-color:#EF4964"/>
		<stop offset="0.873" style="stop-color:#EF4161"/>
	</linearGradient>
	<path style="fill:url(#SVGID_00000113317555876727743230000000175814195906635666_);" d="M364.66,66.71   c0,3.6-0.72,26.86-0.75,27.75c-0.12,3.32-1.63,6.1-4.14,8.44c-4.44,4.19-12.04,7.01-20.69,9.04c-0.01,0.01-0.03,0.01-0.04,0.01   c-21.83,4.5-43.36,1.02-44.73,4.97c1.07-3.09,3.21-11.76,5.34-17.25C301.78,94.29,357.97,100.79,364.66,66.71z"/>
</g>
<g>
	
		<linearGradient id="SVGID_00000028303971535469024900000005469929290502291103_" gradientUnits="userSpaceOnUse" x1="403.271" y1="150.6221" x2="442.6661" y2="36.2107">
		<stop offset="0.2063" style="stop-color:#EF4161"/>
		<stop offset="0.4575" style="stop-color:#F38085"/>
		<stop offset="0.5172" style="stop-color:#F37A81"/>
		<stop offset="0.6071" style="stop-color:#F26A75"/>
		<stop offset="0.7156" style="stop-color:#EF4964"/>
		<stop offset="0.7354" style="stop-color:#EF4161"/>
	</linearGradient>
	<path style="fill:url(#SVGID_00000028303971535469024900000005469929290502291103_);" d="M489.49,62.5   c-72.13-6.97-165.81,67.59-53.83,69.96c-11,10.36-16.19,14.88-23.5,21C296.52,119.66,409.25,43,468.38,45.07   C471.17,47.31,486.49,60.1,489.49,62.5z"/>
</g>
<g>
	
		<linearGradient id="SVGID_00000073680583646178380070000009604101700301666692_" gradientUnits="userSpaceOnUse" x1="512.4933" y1="162.2527" x2="570.4966" y2="61.7882">
		<stop offset="0.1111" style="stop-color:#EF4161"/>
		<stop offset="0.4099" style="stop-color:#F38085"/>
		<stop offset="0.4696" style="stop-color:#F37A81"/>
		<stop offset="0.5595" style="stop-color:#F26A75"/>
		<stop offset="0.668" style="stop-color:#EF4964"/>
		<stop offset="0.6878" style="stop-color:#EF4161"/>
	</linearGradient>
	<polygon style="fill:url(#SVGID_00000073680583646178380070000009604101700301666692_);" points="569.57,63.37 535.24,175.39    514.75,159.09 547.75,48.66  "/>
</g>
<g>
	
		<linearGradient id="SVGID_00000080887146944044568940000002909129574405086654_" gradientUnits="userSpaceOnUse" x1="34.8174" y1="147.669" x2="61.8592" y2="59.2191">
		<stop offset="0.1164" style="stop-color:#379D7F"/>
		<stop offset="0.221" style="stop-color:#60A97D"/>
		<stop offset="0.367" style="stop-color:#84B979"/>
		<stop offset="0.5058" style="stop-color:#9DC676"/>
		<stop offset="0.633" style="stop-color:#ACCF73"/>
		<stop offset="0.7379" style="stop-color:#B1D372"/>
		<stop offset="0.7792" style="stop-color:#A9CE73"/>
		<stop offset="0.8414" style="stop-color:#95C277"/>
		<stop offset="0.9168" style="stop-color:#72B17B"/>
		<stop offset="1" style="stop-color:#379D7F"/>
	</linearGradient>
	<path style="fill:url(#SVGID_00000080887146944044568940000002909129574405086654_);" d="M68.01,81.62l-21.2,69.72l-20.38-17.05   l18.7-63.24l12.74-8.4c0,0,4.11,7.83,5.97,12.12c-0.78-4.83-1.85-9.62-3.23-14.32l0,0l1.63-1.11L68.01,81.62z"/>
</g>
<g>
	
		<linearGradient id="SVGID_00000010274937022641404500000009081941537514299042_" gradientUnits="userSpaceOnUse" x1="448.207" y1="142.4551" x2="476.9492" y2="92.6722">
		<stop offset="0" style="stop-color:#EF4161"/>
		<stop offset="0.4152" style="stop-color:#F38085"/>
		<stop offset="0.5408" style="stop-color:#F37A81"/>
		<stop offset="0.73" style="stop-color:#F26A75"/>
		<stop offset="0.9583" style="stop-color:#EF4964"/>
		<stop offset="1" style="stop-color:#EF4161"/>
	</linearGradient>
	<path style="fill:url(#SVGID_00000010274937022641404500000009081941537514299042_);" d="M475.91,110.46l-5.23,17.21   c-0.01,0.02-7.49,23.44-7.49,23.44l-20.1-16.82l10.67-36.05l12.12-7.86c1.34,3.92,2.85,7.79,4.53,11.57   c-0.76-4.26-1.61-8.55-2.75-12.72l1.57-1.01c0.79,2.96,1.69,5.89,2.71,8.78c0,0.03,0.01,0.06,0.02,0.08L475.91,110.46z"/>
</g>
<linearGradient id="SVGID_00000085970930890722302780000007059975017396190860_" gradientUnits="userSpaceOnUse" x1="221.4962" y1="155.1672" x2="221.4962" y2="46.8285">
	<stop offset="0" style="stop-color:#379D7F"/>
	<stop offset="0.0699" style="stop-color:#60A97D"/>
	<stop offset="0.1674" style="stop-color:#84B979"/>
	<stop offset="0.2601" style="stop-color:#9DC676"/>
	<stop offset="0.3451" style="stop-color:#ACCF73"/>
	<stop offset="0.4152" style="stop-color:#B1D372"/>
	<stop offset="0.5072" style="stop-color:#A9CE73"/>
	<stop offset="0.646" style="stop-color:#95C277"/>
	<stop offset="0.8142" style="stop-color:#72B17B"/>
	<stop offset="1" style="stop-color:#379D7F"/>
</linearGradient>
<path style="fill:url(#SVGID_00000085970930890722302780000007059975017396190860_);" d="M252.86,151.66  c-30.39,11.62-88.2-5.7-80.45-50.45c0.75-3.79,1.66-7.31,2.72-10.59c3.67-11.45,9.38-19.64,15.42-26.09  c25.24-26.94,56.7-15.36,60.11-14.44c4.32,1.17,20.66,10.96,20.63,26.63c-0.18-0.37-4.6-7.51-13.52-11.16v0.01  c-14.82-5.48-57.45,2.05-58.78,44.33c-0.89,28.24,40.69,27.37,55.86,23.03C254.55,136.62,252.86,151.66,252.86,151.66z"/>
</svg>